<svg width="40" height="40" viewBox="0 0 40 40" fill="none" xmlns="http://www.w3.org/2000/svg">
<path d="M18.8623 31.4225H10.6554C9.9004 31.4209 9.17668 31.1206 8.64223 30.5873C8.10778 30.0541 7.80599 29.331 7.80273 28.576V10.6466C7.80436 9.89055 8.10543 9.1659 8.64006 8.63127C9.17469 8.09665 9.89933 7.79557 10.6554 7.79395H28.2644" stroke="#FFFAE6" stroke-width="1.23226" stroke-linecap="round" stroke-linejoin="round"/>
<path d="M31.1166 10.6465V28.5635C31.1166 29.3207 30.8162 30.0469 30.2814 30.5828C29.7466 31.1188 29.0211 31.4207 28.2639 31.4224H22.7188" stroke="#FFFAE6" stroke-width="1.23226" stroke-linecap="round" stroke-linejoin="round"/>
<path d="M31.1474 9.21077C31.4877 9.21077 31.7635 8.93492 31.7635 8.59464C31.7635 8.25437 31.4877 7.97852 31.1474 7.97852C30.8071 7.97852 30.5312 8.25437 30.5312 8.59464C30.5312 8.93492 30.8071 9.21077 31.1474 9.21077Z" fill="#FFFAE6"/>
<path d="M18.8614 31.4223V23.7268H16.1504V20.067H18.8614V16.5366C18.8614 15.5562 19.2508 14.6159 19.9441 13.9226C20.6374 13.2293 21.5777 12.8398 22.5581 12.8398H26.3966V16.321H23.5871C23.466 16.3209 23.3462 16.3451 23.2347 16.3922C23.1232 16.4392 23.0222 16.5082 22.9378 16.5949C22.8533 16.6816 22.7871 16.7844 22.7431 16.8972C22.6991 17.0099 22.6781 17.1303 22.6814 17.2513V20.0486H26.3781V23.7453H22.6814V31.4223" stroke="#FFFAE6" stroke-width="1.23226" stroke-linecap="round" stroke-linejoin="round"/>
</svg>
