<svg width="29" height="29" viewBox="0 0 29 29" fill="none" xmlns="http://www.w3.org/2000/svg">
<path d="M27.3878 8.76629C27.3054 8.66867 27.2027 8.59024 27.0868 8.53647C26.9709 8.4827 26.8447 8.4549 26.717 8.455H22.2669C22.0547 6.87811 21.2781 5.43161 20.0809 4.38358C18.8838 3.33555 17.3473 2.75708 15.7562 2.75537H14.0024C12.4113 2.75708 10.8748 3.33555 9.67764 4.38358C8.48047 5.43161 7.70384 6.87811 7.4917 8.455H3.0416C2.91386 8.4549 2.78765 8.4827 2.67178 8.53647C2.55591 8.59024 2.45319 8.66867 2.3708 8.76629C2.28556 8.86353 2.22288 8.97842 2.18725 9.10273C2.15163 9.22704 2.14394 9.35769 2.16473 9.48532L4.50158 22.7698C4.6212 23.4305 4.96985 24.0278 5.48625 24.4567C6.00266 24.8857 6.65375 25.119 7.32509 25.1155H22.4335C23.1032 25.1157 23.7517 24.8804 24.2654 24.4508C24.7792 24.0212 25.1255 23.4246 25.2439 22.7655L27.5939 9.48532C27.6147 9.35769 27.607 9.22704 27.5713 9.10273C27.5357 8.97842 27.473 8.86353 27.3878 8.76629ZM14.0024 4.5091H15.7562C16.8826 4.50978 17.9733 4.90476 18.839 5.62551C19.7047 6.34626 20.2908 7.34731 20.4956 8.455H9.26297C9.46778 7.34731 10.0539 6.34626 10.9196 5.62551C11.7853 4.90476 12.876 4.50978 14.0024 4.5091ZM23.5208 22.4586C23.4737 22.7124 23.3391 22.9418 23.1405 23.1068C22.9419 23.2718 22.6917 23.362 22.4335 23.3617H7.32509C7.07091 23.3638 6.8239 23.2775 6.62635 23.1175C6.4288 22.9576 6.29299 22.7339 6.24216 22.4849L4.08507 10.2087H25.6735L23.5208 22.4586Z" fill="black"/>
</svg>
