<svg width="24" height="24" viewBox="0 0 24 24" fill="none" xmlns="http://www.w3.org/2000/svg">
<path d="M21.5 8H17V6.5C16.9992 5.8372 16.7356 5.20178 16.2669 4.73311C15.7982 4.26444 15.1628 4.00079 14.5 4H3.5C2.8372 4.00079 2.20178 4.26444 1.73311 4.73311C1.26444 5.20178 1.00079 5.8372 1 6.5V15.5C1.00101 16.0835 1.20612 16.6483 1.5798 17.0966C1.95347 17.5448 2.47216 17.8481 3.046 17.9541C3.15086 18.5245 3.45101 19.0407 3.89491 19.4139C4.33882 19.7872 4.8988 19.9943 5.47877 19.9998C6.05873 20.0052 6.62249 19.8086 7.07331 19.4437C7.52412 19.0788 7.83388 18.5684 7.9494 18H14.0506C14.1659 18.5645 14.4727 19.0718 14.919 19.4362C15.3654 19.8006 15.9238 19.9996 16.5 19.9996C17.0762 19.9996 17.6346 19.8006 18.081 19.4362C18.5273 19.0718 18.8341 18.5645 18.9494 18H21.5C21.8977 17.9995 22.279 17.8414 22.5602 17.5602C22.8414 17.279 22.9995 16.8977 23 16.5V9.5C22.9995 9.10231 22.8414 8.72104 22.5602 8.43984C22.279 8.15863 21.8977 8.00045 21.5 8ZM21.5 9C21.6326 9 21.7598 9.05268 21.8536 9.14645C21.9473 9.24021 22 9.36739 22 9.5V12H20.5C19.6586 11.999 18.8457 11.6953 18.2097 11.1445C17.5736 10.5938 17.1569 9.83258 17.0356 9H21.5ZM2 15.5V6.5C2.00045 6.10231 2.15863 5.72104 2.43984 5.43984C2.72104 5.15863 3.10231 5.00045 3.5 5H14.5C14.8977 5.00045 15.279 5.15863 15.5602 5.43984C15.8414 5.72104 15.9995 6.10231 16 6.5V15.0505C15.5201 15.1494 15.0797 15.3867 14.7332 15.7332C14.3868 16.0797 14.1494 16.5201 14.0506 17H7.9494C7.83618 16.4416 7.53531 15.9387 7.09678 15.5748C6.65825 15.211 6.10844 15.0082 5.5387 15C4.96895 14.9918 4.41356 15.1788 3.96477 15.5299C3.51598 15.881 3.2008 16.375 3.0716 16.93C2.76299 16.8385 2.49208 16.65 2.29905 16.3924C2.10602 16.1348 2.00115 15.8219 2 15.5ZM5.5 19C5.20333 19 4.91332 18.912 4.66664 18.7472C4.41997 18.5824 4.22771 18.3481 4.11418 18.074C4.00065 17.7999 3.97094 17.4983 4.02882 17.2074C4.0867 16.9164 4.22956 16.6491 4.43934 16.4393C4.64912 16.2296 4.91639 16.0867 5.20736 16.0288C5.49834 15.9709 5.79994 16.0007 6.07403 16.1142C6.34811 16.2277 6.58238 16.42 6.7472 16.6666C6.91203 16.9133 7 17.2033 7 17.5C6.99955 17.8977 6.84137 18.279 6.56016 18.5602C6.27896 18.8414 5.89769 18.9995 5.5 19ZM16.5 19C16.2033 19 15.9133 18.912 15.6666 18.7472C15.42 18.5824 15.2277 18.3481 15.1142 18.074C15.0006 17.7999 14.9709 17.4983 15.0288 17.2074C15.0867 16.9164 15.2296 16.6491 15.4393 16.4393C15.6491 16.2296 15.9164 16.0867 16.2074 16.0288C16.4983 15.9709 16.7999 16.0007 17.074 16.1142C17.3481 16.2277 17.5824 16.42 17.7472 16.6666C17.912 16.9133 18 17.2033 18 17.5C17.9995 17.8977 17.8414 18.279 17.5602 18.5602C17.279 18.8414 16.8977 18.9995 16.5 19ZM21.5 17H18.9494C18.8506 16.5201 18.6132 16.0797 18.2668 15.7332C17.9203 15.3867 17.4799 15.1494 17 15.0505V11.2935C17.4171 11.8232 17.9486 12.2519 18.5547 12.5474C19.1607 12.8429 19.8257 12.9976 20.5 13H22V16.5C21.9998 16.6326 21.9471 16.7596 21.8534 16.8534C21.7596 16.9471 21.6326 16.9998 21.5 17Z" fill="#FFFAE6"/>
</svg>
