<svg width="40" height="40" viewBox="0 0 40 40" fill="none" xmlns="http://www.w3.org/2000/svg">
<path d="M31.6187 10.5667V28.4838C31.6171 29.2388 31.3169 29.9625 30.7836 30.4969C30.2503 31.0314 29.5272 31.3332 28.7722 31.3364H11.1571C10.4031 31.3332 9.68098 31.0323 9.14785 30.4991C8.61473 29.966 8.31379 29.2439 8.31055 28.4899V10.5667C8.31379 9.81279 8.61473 9.09065 9.14785 8.55752C9.68098 8.0244 10.4031 7.72346 11.1571 7.72021H28.7722" stroke="#FFFAE6" stroke-width="1.23226" stroke-linecap="round" stroke-linejoin="round"/>
<path d="M31.6493 9.13118C31.9896 9.13118 32.2655 8.85533 32.2655 8.51505C32.2655 8.17478 31.9896 7.89893 31.6493 7.89893C31.3091 7.89893 31.0332 8.17478 31.0332 8.51505C31.0332 8.85533 31.3091 9.13118 31.6493 9.13118Z" fill="#FFFAE6"/>
<path d="M16.0616 14.7871C15.32 14.8969 14.6416 15.2672 14.1482 15.8317C13.6548 16.3963 13.3786 17.1181 13.3691 17.8678V21.5645C13.3757 22.4012 13.713 23.2014 14.3076 23.7901C14.9021 24.3789 15.7055 24.7084 16.5422 24.7068H19.4627" stroke="#FFFAE6" stroke-width="1.23226" stroke-linecap="round" stroke-linejoin="round"/>
<path d="M24.2007 14.7257H16.5422C16.3871 14.7242 16.2322 14.7386 16.0801 14.7688" stroke="#FFFAE6" stroke-width="1.23226" stroke-linecap="round" stroke-linejoin="round"/>
<path d="M19.4434 24.7067H24.1999C25.0334 24.7035 25.8321 24.3718 26.4226 23.7836C27.0131 23.1953 27.348 22.398 27.3545 21.5645V17.8677C27.3542 17.0869 27.0645 16.3339 26.5412 15.7544" stroke="#FFFAE6" stroke-width="1.23226" stroke-linecap="round" stroke-linejoin="round"/>
<path d="M20.7123 18.6438L22.573 19.7159L20.7123 20.788L18.8516 21.8662V19.7159V17.5718" stroke="#FFFAE6" stroke-width="1.23226" stroke-linecap="round" stroke-linejoin="round"/>
</svg>
