<svg width="40" height="40" viewBox="0 0 40 40" fill="none" xmlns="http://www.w3.org/2000/svg">
<path d="M31.0464 10.758V28.675C31.0448 29.43 30.7446 30.1537 30.2113 30.6882C29.678 31.2226 28.9549 31.5244 28.1999 31.5277H10.5848C9.83085 31.5244 9.10871 31.2235 8.57559 30.6904C8.04246 30.1572 7.74152 29.4351 7.73828 28.6811V10.758C7.7399 10.0029 8.04013 9.27922 8.57342 8.74477C9.10672 8.21032 9.82979 7.90853 10.5848 7.90527H28.1999" stroke="#FFFAE6" stroke-width="1.23226" stroke-linecap="round" stroke-linejoin="round"/>
<path d="M31.0771 9.3221C31.4173 9.3221 31.6932 9.04625 31.6932 8.70597C31.6932 8.36569 31.4173 8.08984 31.0771 8.08984C30.7368 8.08984 30.4609 8.36569 30.4609 8.70597C30.4609 9.04625 30.7368 9.3221 31.0771 9.3221Z" fill="#FFFAE6"/>
<path d="M24.0478 16.0199C24.388 16.0199 24.6639 15.744 24.6639 15.4037C24.6639 15.0634 24.388 14.7876 24.0478 14.7876C23.7075 14.7876 23.4316 15.0634 23.4316 15.4037C23.4316 15.744 23.7075 16.0199 24.0478 16.0199Z" fill="#FFFAE6"/>
<path d="M14.6458 12.52C14.0644 12.5635 13.521 12.8252 13.1245 13.2526C12.728 13.6799 12.5077 14.2414 12.5078 14.8243V24.6085C12.5094 25.2224 12.754 25.8107 13.1881 26.2448C13.6222 26.6789 14.2105 26.9235 14.8245 26.9251H20.117" stroke="#FFFAE6" stroke-width="1.23226" stroke-linecap="round" stroke-linejoin="round"/>
<path d="M20.1158 26.9251H24.6073C25.2212 26.9235 25.8096 26.6789 26.2437 26.2448C26.6778 25.8107 26.9224 25.2224 26.924 24.6084V14.8243C26.9224 14.2104 26.6778 13.6221 26.2437 13.188C25.8096 12.7539 25.2212 12.5093 24.6073 12.5077H14.8232C14.7638 12.5013 14.7039 12.5013 14.6445 12.5077" stroke="#FFFAE6" stroke-width="1.23226" stroke-linecap="round" stroke-linejoin="round"/>
<path d="M20.9475 16.4753C20.2543 16.2124 19.4952 16.1781 18.7811 16.3774C18.067 16.5767 17.4354 16.9992 16.9785 17.583C16.5216 18.1669 16.2635 18.8816 16.2417 19.6226C16.22 20.3637 16.4358 21.0923 16.8577 21.7019C17.2796 22.3115 17.8854 22.7703 18.5866 23.0111C19.2877 23.2518 20.0476 23.2621 20.755 23.0402C21.4624 22.8184 22.0803 22.3762 22.5184 21.7781C22.9566 21.18 23.1919 20.4575 23.1902 19.7162" stroke="#FFFAE6" stroke-width="1.23226" stroke-linecap="round" stroke-linejoin="round"/>
</svg>
