<svg width="30" height="30" viewBox="0 0 30 30" fill="none" xmlns="http://www.w3.org/2000/svg">
<path d="M2.56006 23.2075C2.47883 23.5729 2.48069 23.9519 2.56553 24.3165C2.65036 24.6811 2.81599 25.022 3.05019 25.3141C3.2844 25.6061 3.58119 25.8418 3.91868 26.0038C4.25616 26.1658 4.62571 26.2499 5.00006 26.25H25.0001C25.3744 26.2499 25.744 26.1658 26.0814 26.0038C26.4189 25.8418 26.7157 25.6061 26.9499 25.3141C27.1841 25.022 27.3498 24.6811 27.4346 24.3165C27.5194 23.9519 27.5213 23.5729 27.4401 23.2075L24.9401 11.9575C24.8166 11.4023 24.5076 10.9059 24.064 10.55C23.6204 10.1941 23.0688 10.0001 22.5001 10H7.50006C6.93135 10.0001 6.37967 10.1941 5.93607 10.55C5.49247 10.9059 5.18347 11.4023 5.06006 11.9575L2.56006 23.2075Z" stroke="black" stroke-width="2.5" stroke-linecap="round" stroke-linejoin="round"/>
<path d="M10 13.75V7.5C10 6.17392 10.5268 4.90215 11.4645 3.96447C12.4021 3.02678 13.6739 2.5 15 2.5C16.3261 2.5 17.5979 3.02678 18.5355 3.96447C19.4732 4.90215 20 6.17392 20 7.5V13.75" stroke="black" stroke-width="2.5" stroke-linecap="round" stroke-linejoin="round"/>
</svg>
