<svg width="15" height="15" viewBox="0 0 15 15" fill="none" xmlns="http://www.w3.org/2000/svg">
<g clip-path="url(#clip0_113_1418)">
<path d="M12.8124 15H2.18738V2.1875H12.8124V15ZM2.81238 14.375H12.1874V2.8125H2.81238V14.375Z" fill="#FFFAE6"/>
<path d="M10.9374 2.8125H4.06238V0.3125H10.9374V2.8125ZM4.68738 2.1875H10.3124V0.9375H4.68738V2.1875Z" fill="#FFFAE6"/>
<path d="M5 12.8125C4.82719 12.8125 4.6875 12.6728 4.6875 12.5V4.6875C4.6875 4.51469 4.82719 4.375 5 4.375C5.17281 4.375 5.3125 4.51469 5.3125 4.6875V12.5C5.3125 12.6728 5.17281 12.8125 5 12.8125Z" fill="#FFFAE6"/>
<path d="M7.50012 12.8125C7.32731 12.8125 7.18762 12.6728 7.18762 12.5V4.6875C7.18762 4.51469 7.32731 4.375 7.50012 4.375C7.67293 4.375 7.81262 4.51469 7.81262 4.6875V12.5C7.81262 12.6728 7.67293 12.8125 7.50012 12.8125Z" fill="#FFFAE6"/>
<path d="M10 12.8125C9.82719 12.8125 9.6875 12.6728 9.6875 12.5V4.6875C9.6875 4.51469 9.82719 4.375 10 4.375C10.1728 4.375 10.3125 4.51469 10.3125 4.6875V12.5C10.3125 12.6728 10.1728 12.8125 10 12.8125Z" fill="#FFFAE6"/>
<path d="M15 2.1875H0V2.8125H15V2.1875Z" fill="#FFFAE6"/>
</g>
<defs>
<clipPath id="clip0_113_1418">
<rect width="15" height="15" fill="white"/>
</clipPath>
</defs>
</svg>
